<svg xmlns="http://www.w3.org/2000/svg" width="14.321" height="20.405" viewBox="0 0 14.321 20.405">
  <path id="pin" d="M7.137.25a6.959,6.959,0,0,1,5.077,2.084,6.844,6.844,0,0,1,2.108,5.053,9.764,9.764,0,0,1-.743,3.424,19.88,19.88,0,0,1-1.8,3.592q-1.054,1.652-2.108,3.113T7.9,19.84l-.766.814q-.287-.287-.766-.862t-1.7-2.227q-1.221-1.652-2.179-3.209A21.889,21.889,0,0,1,.766,10.835,9.68,9.68,0,0,1,0,7.387,6.881,6.881,0,0,1,2.084,2.334,6.881,6.881,0,0,1,7.137.25Zm0,9.675a2.527,2.527,0,0,0,1.82-.743,2.488,2.488,0,0,0,0-3.592,2.523,2.523,0,0,0-1.82-.742A2.535,2.535,0,0,0,4.6,7.387,2.534,2.534,0,0,0,7.137,9.925Z" transform="translate(0 -0.25)" fill="#0054a3"/>
</svg>
